<svg height="64" width="64" xmlns="http://www.w3.org/2000/svg"><path d="M30 11a1 1 0 0 0 1-1V2a1 1 0 0 0-2 0v8a1 1 0 0 0 1 1zm-11 4a1 1 0 0 0 1-1V6a1 1 0 0 0-2 0v8a1 1 0 0 0 1 1zm22 0a1 1 0 0 0 1-1V6a1 1 0 0 0-2 0v8a1 1 0 0 0 1 1zm17 9h-7v-4a1 1 0 0 0-1-1H10a1 1 0 0 0-1 1v26a9.01 9.01 0 0 0 9 9h24a9.01 9.01 0 0 0 9-9v-2h3a6.006 6.006 0 0 0 6-6V26a2 2 0 0 0-2-2zm-2 14a2 2 0 0 1-2 2h-3V28h5zm-1 19H5a1 1 0 0 0-.97 1.242C4.441 59.888 6.428 63 11 63h38c4.572 0 6.559-3.112 6.97-4.758A1 1 0 0 0 55 57z" fill="#f7f7f7"/></svg>