<svg height="18" width="18" xmlns="http://www.w3.org/2000/svg"><g fill="#f7f7f7"><path d="M6 11a5 5 0 0 1 5-5c.904 0 1.74.258 2.471.678C13.181 3.499 10.503 1 7.251 1A6.257 6.257 0 0 0 1 7.25c0 3.253 2.498 5.93 5.677 6.22A4.947 4.947 0 0 1 6 11z" opacity=".4"/><path d="M10.75 4.5a6.257 6.257 0 0 0-6.25 6.25A6.257 6.257 0 0 0 10.75 17 6.257 6.257 0 0 0 17 10.75a6.257 6.257 0 0 0-6.25-6.25zm2.5 7H11.5v1.75a.75.75 0 0 1-1.5 0V11.5H8.25a.75.75 0 0 1 0-1.5H10V8.25a.75.75 0 0 1 1.5 0V10h1.75a.75.75 0 0 1 0 1.5z"/></g></svg>