<svg height="48" width="48" xmlns="http://www.w3.org/2000/svg"><g fill="#f7f7f7"><path d="M46 35H2c-.6 0-1-.4-1-1s.4-1 1-1h44c.6 0 1 .4 1 1s-.4 1-1 1zm-6 6H8c-.6 0-1-.4-1-1s.4-1 1-1h32c.6 0 1 .4 1 1s-.4 1-1 1zM23 10c4.8 0 9.3 2.5 11.8 6.5 1-.3 2.1-.5 3.2-.5 3.2 0 6.1 1.4 8.1 3.6.6-1.5.9-3 .9-4.6 0-.6-.4-1-1-1-6.1 0-11-4.9-11-11 0-.6-.4-1-1-1-5.4 0-10 3.3-12 8.1.4-.1.7-.1 1-.1z"/><path d="M47 26.8c-.1-4.9-4.1-8.8-9-8.8-1.4 0-2.8.3-4.1 1-1.9-4.2-6.2-7-10.9-7-4.4 0-8.5 2.5-10.6 6.3-.8-.2-1.6-.3-2.4-.3-5 0-9 4-9 9 0 .6.4 1 1 1h44c.6 0 1-.4 1-1z"/></g></svg>