<svg height="18" width="18" xmlns="http://www.w3.org/2000/svg"><g fill="#f7f7f7"><path clip-rule="evenodd" d="M13.25 2.75h-1.5v7.5L9 8.25l-2.75 2v-7.5h-1.5a2 2 0 0 0-2 2v8.5a2 2 0 0 0 2 2h8.5a2 2 0 0 0 2-2v-8.5a2 2 0 0 0-2-2z" fill-opacity=".3" fill-rule="evenodd"/><g fill="none" stroke="#f7f7f7" stroke-linecap="round" stroke-linejoin="round" stroke-width="1.5"><path d="M11.75 2.75h1.5a2 2 0 0 1 2 2v8.5a2 2 0 0 1-2 2h-8.5a2 2 0 0 1-2-2v-8.5a2 2 0 0 1 2-2h1.5"/><path d="M11.75 10.25L9 8.25l-2.75 2v-7.5h5.5z"/></g></g></svg>